<?xml version="1.0" encoding="UTF-8" standalone="no"?>
<svg
   width="8"
   height="5"
   viewBox="0 0 8 5"
   fill="none"
   version="1.1"
   id="svg12"
   sodipodi:docname="arrow-down.svg"
   inkscape:version="1.2.2 (732a01da63, 2022-12-09)"
   xmlns:inkscape="http://www.inkscape.org/namespaces/inkscape"
   xmlns:sodipodi="http://sodipodi.sourceforge.net/DTD/sodipodi-0.dtd"
   xmlns="http://www.w3.org/2000/svg"
   xmlns:svg="http://www.w3.org/2000/svg">
  <defs
     id="defs16" />
  <sodipodi:namedview
     id="namedview14"
     pagecolor="#505050"
     bordercolor="#eeeeee"
     borderopacity="1"
     inkscape:showpageshadow="0"
     inkscape:pageopacity="0"
     inkscape:pagecheckerboard="0"
     inkscape:deskcolor="#505050"
     showgrid="false"
     inkscape:zoom="164.2"
     inkscape:cx="4.6650426"
     inkscape:cy="2.4634592"
     inkscape:window-width="1920"
     inkscape:window-height="986"
     inkscape:window-x="-11"
     inkscape:window-y="1609"
     inkscape:window-maximized="1"
     inkscape:current-layer="svg12" />
  <path
     d="M 6.9978597,0.77765193 C 6.889534,0.668098 6.7430018,0.60660639 6.5902754,0.60660639 c -0.1527364,0 -0.2992685,0.0614916 -0.4075844,0.17104554 L 4.1071873,2.8599127 2.0605936,0.77765193 C 1.9522678,0.668098 1.8057456,0.60660639 1.6530092,0.60660639 c -0.1527363,0 -0.2992685,0.0614916 -0.4075843,0.17104554 C 1.1912323,0.83233411 1.148229,0.89739026 1.118875,0.96907232 1.089524,1.0407463 1.0744129,1.1176336 1.0744129,1.195277 c 0,0.077654 0.015111,0.1545408 0.044462,0.2262148 0.029354,0.071674 0.072357,0.1367332 0.1265499,0.1914163 l 2.4512841,2.493999 c 0.053747,0.055137 0.1176915,0.0989 0.1881379,0.1287571 0.070456,0.029867 0.1460168,0.045235 0.2223404,0.045235 0.076324,0 0.151884,-0.015367 0.2223404,-0.045235 0.070446,-0.029857 0.1343913,-0.07362 0.1881379,-0.1287571 l 2.4801941,-2.493999 c 0.054183,-0.054683 0.097196,-0.1197423 0.1265419,-0.1914163 0.029356,-0.071674 0.04447,-0.1485612 0.04447,-0.2262148 0,-0.077643 -0.015114,-0.1545306 -0.04447,-0.22620468 C 7.0950556,0.89739026 7.0520424,0.83233411 6.9978597,0.77765193 Z"
     fill="#F6F8FA"
     id="path2947"
     style="fill:#00ff00;stroke-width:0.999684" />
  <path
     style="fill:#00ff00;stroke-width:0.00609013"
     d="M 3.9951279,4.2669473 C 3.9113686,4.2474646 3.8261286,4.208458 3.762759,4.1606135 3.7220322,4.1298646 1.2355879,1.6004981 1.1963864,1.5499391 1.1808036,1.5298417 1.1547726,1.4859927 1.1385398,1.452497 1.0300082,1.2285465 1.0704211,0.96935296 1.2418593,0.78984395 c 0.08,-0.0837665 0.1700189,-0.13670709 0.2783783,-0.16371614 0.07617,-0.0189858 0.1904188,-0.0189315 0.2672167,1.2689e-4 0.066853,0.0165905 0.150721,0.0565265 0.2046255,0.0974382 0.030841,0.0234074 2.0866433,2.1052905 2.1083527,2.1351003 0.003,0.00412 0.4042466,-0.3937074 1.0657734,-1.056713 0.7163989,-0.7180004 1.0734051,-1.07167218 1.099289,-1.08902151 0.021083,-0.0141315 0.060821,-0.0364435 0.088307,-0.0495823 0.3277395,-0.15666677 0.7205892,0.0455398 0.7993363,0.41143221 0.012488,0.058023 0.014203,0.1724543 0.00338,0.225335 -0.017915,0.087515 -0.053129,0.1697638 -0.102995,0.2405603 C 7.036639,1.5647726 6.6241227,1.9840342 6.0078907,2.6035323 5.4481292,3.1662607 4.8724609,3.7450324 4.7286278,3.8896917 4.5231198,4.0963803 4.4570579,4.159168 4.4201609,4.1828699 c -0.050536,0.032463 -0.1160602,0.061895 -0.1731806,0.077788 -0.047312,0.013164 -0.2053339,0.01711 -0.2518524,0.00629 z"
     id="path925" />
  <path
     style="fill:#00ff00;stroke-width:0.00609013"
     d="M 3.9951279,4.2669473 C 3.9123136,4.2476843 3.8278078,4.2092509 3.7645141,4.1620636 3.7362652,4.1410033 3.3321713,3.7315467 1.6674396,2.0371596 1.4239042,1.7892857 1.2119142,1.5700365 1.1963509,1.5499391 1.1593801,1.5021974 1.1125506,1.4048587 1.0952674,1.3398295 1.0774457,1.272774 1.0756486,1.1289141 1.0918258,1.0643282 1.1191612,0.95519423 1.1686548,0.86528298 1.2447707,0.78648512 1.321577,0.70697236 1.4099141,0.65494993 1.5164434,0.62649489 1.589707,0.60692542 1.709548,0.60679642 1.7874543,0.62620315 c 0.065538,0.0163258 0.1509469,0.0565521 0.2027474,0.0954913 0.020716,0.0155724 0.4355507,0.43302385 0.9218552,0.92766995 0.4863045,0.4946462 0.9533958,0.9690774 1.0379807,1.0542916 l 0.1537908,0.1549349 0.046449,-0.041571 C 4.1758239,2.7941552 4.6453523,2.3248544 5.1936735,1.7741288 5.7419947,1.2234032 6.2105634,0.75658155 6.2349373,0.73674732 6.2886214,0.69306186 6.3863129,0.64374361 6.452497,0.62691517 6.6422401,0.57866974 6.8472468,0.63569859 6.9892061,0.77621711 7.1972686,0.98216818 7.2239117,1.2989284 7.0535164,1.5408039 7.0366937,1.5646837 6.6506937,1.9573363 6.080637,2.5304507 5.5608913,3.0529842 4.9852252,3.6318057 4.801379,3.8167206 4.5323959,4.0872675 4.4579434,4.1587986 4.4201609,4.1829804 c -0.05063,0.032404 -0.1162502,0.061837 -0.1731806,0.077677 -0.047312,0.013164 -0.2053339,0.01711 -0.2518524,0.00629 z"
     id="path932" />
  <path
     style="fill:#008000;stroke-width:0.00609013"
     d="M 4.0016364,4.2686457 C 3.9258533,4.2537802 3.8341496,4.2129395 3.7694633,4.1652463 3.7475097,4.14906 3.6735146,4.078803 3.6050297,4.0091196 1.1418432,1.5028295 1.2082872,1.5708245 1.1792801,1.5267449 1.145658,1.4756522 1.1113726,1.3993898 1.0952482,1.3398295 1.083495,1.2964155 1.0812592,1.2733242 1.0813912,1.1967113 1.0815635,1.0966358 1.088195,1.0593619 1.1209289,0.97448019 1.1572862,0.88020266 1.2490686,0.76588887 1.335729,0.7069495 1.378539,0.6778334 1.4602697,0.6409774 1.5147151,0.6262363 c 0.069943,-0.0189371 0.2038415,-0.0188361 0.2757843,2.0808e-4 0.064364,0.017038 0.1500762,0.0579454 0.1999247,0.0954172 0.020838,0.0156643 0.4411643,0.43859692 0.9340582,0.93985032 0.4928939,0.5012533 0.9598866,0.9756143 1.0377617,1.0541354 L 4.103835,2.858613 4.162727,2.804554 C 4.1951175,2.7748216 4.6646445,2.3054063 5.20612,1.7614088 5.7475957,1.2174113 6.2105634,0.75620408 6.2349373,0.73650379 6.2888652,0.69291627 6.3866599,0.64365535 6.452497,0.62691517 6.7141582,0.56038335 6.9952828,0.69696789 7.1106584,0.94668319 7.200042,1.1401424 7.1785755,1.3633115 7.0535106,1.5408039 c -0.025,0.03548 -0.4618224,0.4769977 -2.1814034,2.2048518 -0.2622356,0.2634972 -0.4178744,0.4153894 -0.4415347,0.430906 -0.072809,0.047749 -0.1483364,0.078745 -0.224931,0.092312 -0.042406,0.00751 -0.1652529,0.00737 -0.2040051,-2.28e-4 z"
     id="path858" />
</svg>
