<?xml version="1.0" encoding="UTF-8" standalone="no"?>
<svg
   width="12"
   height="12"
   viewBox="0 0 12 12"
   fill="none"
   version="1.1"
   id="svg1059"
   sodipodi:docname="exit.svg"
   inkscape:version="1.2.2 (732a01da63, 2022-12-09)"
   xmlns:inkscape="http://www.inkscape.org/namespaces/inkscape"
   xmlns:sodipodi="http://sodipodi.sourceforge.net/DTD/sodipodi-0.dtd"
   xmlns="http://www.w3.org/2000/svg"
   xmlns:svg="http://www.w3.org/2000/svg">
  <defs
     id="defs1063" />
  <sodipodi:namedview
     id="namedview1061"
     pagecolor="#505050"
     bordercolor="#eeeeee"
     borderopacity="1"
     inkscape:showpageshadow="0"
     inkscape:pageopacity="0"
     inkscape:pagecheckerboard="0"
     inkscape:deskcolor="#505050"
     showgrid="false"
     inkscape:zoom="62.833333"
     inkscape:cx="5.9522547"
     inkscape:cy="5.8726791"
     inkscape:window-width="1920"
     inkscape:window-height="986"
     inkscape:window-x="-11"
     inkscape:window-y="1609"
     inkscape:window-maximized="1"
     inkscape:current-layer="svg1059" />
  <path
     style="color:#000000;fill:#000000;stroke-linecap:round;stroke-linejoin:round;-inkscape-stroke:none"
     d="M 1.5742187,0.58984375 A 0.91043001,0.91043001 0 0 0 0.92578125,0.84765625 0.91043001,0.91043001 0 0 0 0.91210938,2.1347656 l 3.87695312,3.96875 -3.87695312,3.9667974 a 0.91043001,0.91043001 0 0 0 0.0136719,1.289062 0.91043001,0.91043001 0 0 0 1.28906255,-0.01563 l 3.8496093,-3.9375 3.8496094,3.9375 a 0.91043001,0.91043001 0 0 0 1.2871095,0.01563 0.91043001,0.91043001 0 0 0 0.01367,-1.289062 L 7.3378906,6.1035156 11.214844,2.1347656 a 0.91043001,0.91043001 0 0 0 -0.01367,-1.28710935 0.91043001,0.91043001 0 0 0 -1.2871095,0.015625 L 6.0644531,4.8007812 2.2148438,0.86328125 A 0.91043001,0.91043001 0 0 0 1.5742187,0.58984375 Z"
     id="path1057" />
</svg>
