<svg width="606" height="94" viewBox="0 0 606 94" fill="none" xmlns="http://www.w3.org/2000/svg">
<path d="M91.4047 72V21.0909H92.9957V45.75H125.41V21.0909H127.001V72H125.41V47.3409H92.9957V72H91.4047ZM142.879 72V21.0909H170.024V22.6818H144.47V45.75H168.533V47.3409H144.47V70.4091H170.72V72H142.879ZM179.781 72H178.091L196.287 21.0909H198.474L216.67 72H214.98L197.48 23.0795H197.281L179.781 72ZM185.548 53.2074H209.213V54.7983H185.548V53.2074ZM226.893 72V21.0909H228.484V70.4091H253.938V72H226.893ZM255.821 22.6818V21.0909H290.225V22.6818H273.819V72H272.228V22.6818H255.821ZM302.43 72V21.0909H304.021V45.75H336.436V21.0909H338.027V72H336.436V47.3409H304.021V72H302.43ZM400.837 33.8182C400.588 30.3381 399.254 27.4794 396.834 25.2422C394.431 23.005 391.258 21.8864 387.314 21.8864C384.729 21.8864 382.417 22.3835 380.378 23.3778C378.34 24.3722 376.733 25.7393 375.556 27.4794C374.379 29.2029 373.791 31.1832 373.791 33.4205C373.791 34.7131 374.007 35.9062 374.437 37C374.868 38.0938 375.523 39.0964 376.401 40.0078C377.296 40.9027 378.415 41.7147 379.757 42.4439C381.116 43.1565 382.707 43.7945 384.53 44.358L390.297 46.1477C392.501 46.8272 394.407 47.5895 396.014 48.4347C397.622 49.2798 398.947 50.2327 399.991 51.2933C401.052 52.3374 401.839 53.5057 402.353 54.7983C402.867 56.0743 403.123 57.4995 403.123 59.0739C403.123 61.7254 402.444 64.0869 401.085 66.1584C399.726 68.2299 397.829 69.8539 395.393 71.0305C392.957 72.2071 390.131 72.7955 386.916 72.7955C383.817 72.7955 381.108 72.2569 378.788 71.1797C376.467 70.0859 374.628 68.5862 373.269 66.6804C371.927 64.758 371.173 62.554 371.007 60.0682H372.598C372.764 62.2557 373.451 64.1863 374.661 65.8601C375.871 67.5339 377.512 68.843 379.583 69.7876C381.671 70.7322 384.115 71.2045 386.916 71.2045C389.833 71.2045 392.385 70.6991 394.572 69.6882C396.776 68.6607 398.483 67.2356 399.693 65.4126C400.919 63.5897 401.533 61.4768 401.533 59.0739C401.533 57.2509 401.135 55.6518 400.339 54.2763C399.544 52.8842 398.293 51.6579 396.586 50.5973C394.879 49.5367 392.65 48.5838 389.899 47.7386L384.132 45.9489C380.138 44.6894 377.147 43.0239 375.158 40.9524C373.186 38.8809 372.2 36.3703 372.2 33.4205C372.2 30.9181 372.855 28.6809 374.164 26.7088C375.473 24.7202 377.263 23.1541 379.533 22.0107C381.82 20.8672 384.414 20.2955 387.314 20.2955C390.23 20.2955 392.791 20.8755 394.995 22.0355C397.199 23.1955 398.947 24.7947 400.24 26.8331C401.533 28.8714 402.262 31.1998 402.427 33.8182H400.837ZM412.775 22.6818V21.0909H447.178V22.6818H430.772V72H429.181V22.6818H412.775ZM496.54 46.5455C496.54 51.7325 495.653 56.2898 493.88 60.2173C492.107 64.1449 489.637 67.2107 486.472 69.4148C483.307 71.6023 479.636 72.696 475.46 72.696C471.267 72.696 467.588 71.594 464.423 69.3899C461.258 67.1858 458.789 64.12 457.016 60.1925C455.259 56.2649 454.381 51.7159 454.381 46.5455C454.381 41.3584 455.267 36.8094 457.04 32.8984C458.814 28.9709 461.283 25.9051 464.448 23.701C467.613 21.4969 471.284 20.3949 475.46 20.3949C479.636 20.3949 483.307 21.4969 486.472 23.701C489.637 25.8885 492.107 28.946 493.88 32.8736C495.653 36.8011 496.54 41.3584 496.54 46.5455ZM494.949 46.5455C494.949 41.6733 494.128 37.3977 492.488 33.7188C490.847 30.0232 488.56 27.148 485.627 25.093C482.71 23.0215 479.321 21.9858 475.46 21.9858C471.615 21.9858 468.226 23.0133 465.293 25.0682C462.377 27.1065 460.09 29.9735 458.432 33.669C456.792 37.348 455.972 41.6402 455.972 46.5455C455.972 51.3845 456.784 55.6518 458.408 59.3473C460.032 63.0263 462.302 65.9098 465.219 67.9979C468.152 70.0694 471.566 71.1051 475.46 71.1051C479.321 71.1051 482.719 70.0777 485.652 68.0227C488.585 65.9512 490.872 63.076 492.513 59.397C494.153 55.7015 494.965 51.4176 494.949 46.5455ZM509.559 72V21.0909H524.474C527.324 21.0909 529.843 21.6958 532.031 22.9055C534.235 24.1153 535.958 25.8056 537.201 27.9766C538.461 30.1475 539.09 32.6913 539.09 35.608C539.09 38.4915 538.461 41.0187 537.201 43.1896C535.958 45.344 534.235 47.026 532.031 48.2358C529.843 49.429 527.324 50.0256 524.474 50.0256H510.354V48.4347H524.474C527.026 48.4347 529.28 47.9044 531.235 46.8438C533.191 45.7831 534.724 44.2917 535.834 42.3693C536.944 40.447 537.499 38.1932 537.499 35.608C537.499 33.0062 536.944 30.7358 535.834 28.7969C534.724 26.858 533.191 25.3582 531.235 24.2976C529.28 23.2204 527.026 22.6818 524.474 22.6818H511.15V72H509.559ZM528.948 48.8324L541.477 72H539.687L527.158 48.8324H528.948ZM552.625 72V21.0909H579.77V22.6818H554.216V45.75H578.279V47.3409H554.216V70.4091H580.466V72H552.625Z" fill="#161616"/>
<path d="M50.293 31.6667C23.668 37.5833 17.4555 55.8362 11.3021 71.1308L16.8934 73.0833L19.7038 66.2792C21.1238 66.7821 22.603 67.1667 23.668 67.1667C56.2096 67.1667 65.0846 16.875 65.0846 16.875C62.1263 22.7917 41.418 23.5312 26.6263 26.4896C11.8346 29.4479 5.91797 42.0208 5.91797 47.9375C5.91797 53.8542 11.0951 59.0312 11.0951 59.0312C20.7096 31.6667 50.293 31.6667 50.293 31.6667Z" fill="#18AC42"/>
</svg>
